<svg xmlns="http://www.w3.org/2000/svg" width="48" height="48" viewBox="0 0 48 48" fill="none">
  <defs>
    <linearGradient id="g" x1="0" y1="0" x2="0" y2="1">
      <stop offset="0%" stop-color="#8B7CF6"/>
      <stop offset="100%" stop-color="#F4F2FE"/>
    </linearGradient>
  </defs>
  <path d="M24 1.5 44.5 13.25 44.5 34.75 24 46.5 3.5 34.75 3.5 13.25Z" fill="url(#g)"/>
  <path d="M24 5.6 40.9 15.3 40.9 32.7 24 42.4 7.1 32.7 7.1 15.3Z" fill="none" stroke="#141318" stroke-width="1.4" stroke-linejoin="round"/>
  <path d="M12.6 32.4 14.2 19.4 19.3 26.2 24 14.6 28.7 26.2 33.8 19.4 35.4 32.4C29.6 34.6 18.4 34.6 12.6 32.4Z" fill="#141318"/>
  <circle cx="14.2" cy="17.6" r="2.4" fill="#141318"/>
  <circle cx="24" cy="12.8" r="2.7" fill="#141318"/>
  <circle cx="33.8" cy="17.6" r="2.4" fill="#141318"/>
  <path d="M14.4 30.6C20 33 28 33 33.6 30.6 28 31.9 20 31.9 14.4 30.6Z" fill="url(#g)"/>
</svg>
